<?xml version="1.0" encoding="UTF-8"?>
<!DOCTYPE svg PUBLIC "-//W3C//DTD SVG 1.1//EN" "http://www.w3.org/Graphics/SVG/1.1/DTD/svg11.dtd">
<svg xmlns="http://www.w3.org/2000/svg" version="1.1" width="128px" height="128px" style="shape-rendering:geometricPrecision; text-rendering:geometricPrecision; image-rendering:optimizeQuality; fill-rule:evenodd; clip-rule:evenodd" xmlns:xlink="http://www.w3.org/1999/xlink">
<g><path style="opacity:0.906" fill="#dc4c3f" d="M 41.5,37.5 C 48.3914,36.9013 55.058,37.7346 61.5,40C 63.5852,41.0414 65.2519,42.5414 66.5,44.5C 64.1667,47.5 61.5,50.1667 58.5,52.5C 45.3858,45.8913 37.3858,49.7247 34.5,64C 35.2889,72.789 40.1223,77.6224 49,78.5C 54.9207,78.4623 59.0873,75.7956 61.5,70.5C 57.2172,69.5078 52.8839,69.1744 48.5,69.5C 48.5,65.5 48.5,61.5 48.5,57.5C 57.1667,57.5 65.8333,57.5 74.5,57.5C 75.7058,81.8001 64.3725,92.3001 40.5,89C 26.1639,82.8318 20.3306,71.9985 23,56.5C 26.0174,46.9839 32.1841,40.6505 41.5,37.5 Z"/></g>
<g><path style="opacity:0.839" fill="#de5143" d="M 88.5,49.5 C 96.1589,48.0099 98.4922,50.8432 95.5,58C 98.4816,58.498 101.482,58.6646 104.5,58.5C 104.5,61.1667 104.5,63.8333 104.5,66.5C 101.482,66.3354 98.4816,66.502 95.5,67C 98.4922,74.1568 96.1589,76.9901 88.5,75.5C 88.5,72.5 88.5,69.5 88.5,66.5C 85.5,66.5 82.5,66.5 79.5,66.5C 79.5,63.8333 79.5,61.1667 79.5,58.5C 82.5,58.5 85.5,58.5 88.5,58.5C 88.5,55.5 88.5,52.5 88.5,49.5 Z"/></g>
</svg>
